<svg width="824" height="226" viewBox="0 0 824 226" fill="none" xmlns="http://www.w3.org/2000/svg">
<path fill-rule="evenodd" clip-rule="evenodd" d="M125.52 3.31002C65.14 0.910018 14.26 47.91 11.86 108.29C9.46005 168.67 56.4701 219.55 116.84 221.95C177.22 224.35 228.1 177.35 230.5 116.97C232.89 56.59 185.89 5.70002 125.52 3.31002ZM171.7 163.59C170.34 165.99 167.69 167.19 165.11 166.83C164.32 166.72 163.53 166.46 162.79 166.04C148.33 157.81 132.57 152.45 115.95 150.11C99.33 147.77 82.7 148.58 66.53 152.51C63.02 153.36 59.49 151.21 58.64 147.7C57.79 144.19 59.9401 140.66 63.4501 139.81C81.2301 135.49 99.51 134.6 117.77 137.17C136.03 139.74 153.35 145.63 169.26 154.68C172.39 156.47 173.49 160.45 171.71 163.59H171.7ZM186.08 134.87C183.85 138.99 178.69 140.53 174.57 138.3C157.65 129.15 139.33 123.14 120.12 120.44C100.91 117.74 81.6501 118.47 62.8601 122.6C61.8401 122.82 60.83 122.86 59.85 122.72C56.44 122.24 53.5201 119.7 52.7401 116.13C51.7301 111.55 54.63 107.02 59.21 106.01C79.98 101.44 101.27 100.63 122.49 103.61C143.7 106.59 163.95 113.23 182.65 123.35C186.78 125.58 188.31 130.73 186.08 134.86V134.87ZM202.02 102.49C199.92 106.53 195.55 108.62 191.29 108.02C190.14 107.86 189.01 107.5 187.92 106.94C168.22 96.69 147 89.92 124.85 86.81C102.7 83.7 80.43 84.36 58.67 88.78C53.01 89.93 47.5 86.27 46.35 80.62C45.2 74.96 48.86 69.45 54.51 68.3C78.61 63.41 103.25 62.68 127.76 66.12C152.27 69.56 175.75 77.06 197.57 88.41C202.69 91.07 204.68 97.38 202.02 102.5V102.49Z" fill="white"/>
<path fill-rule="evenodd" clip-rule="evenodd" d="M318.54 169.81C299.67 169.81 283.47 163.28 276.7 155.86C276.06 155.13 275.97 154.73 275.97 153.84V131.75C275.97 130.7 276.86 130.3 277.58 131.19C285.72 141.35 303.06 149.65 317.25 149.65C328.54 149.65 336.12 146.59 336.12 136.59C336.12 130.62 333.3 126.75 317.9 122.4L309.03 119.9C288.47 114.1 275.97 107.24 275.97 87.57C275.97 70.16 292.09 54.84 319.02 54.84C332.24 54.84 345.38 58.95 352.96 64.6C353.6 65.08 353.85 65.57 353.85 66.45V86.53C353.85 87.9 352.72 88.3 351.67 87.42C345.54 82.34 333.69 75.49 319.66 75.49C305.63 75.49 299.02 81.78 299.02 87.58C299.02 93.71 303.29 95.4 318.53 99.92L326.11 102.18C349.57 109.19 359.17 119.03 359.17 135.32C359.17 156.28 341.76 169.83 318.54 169.83V169.81ZM482.93 127.72C482.93 114.9 491.8 105.39 504.3 105.39C516.8 105.39 525.58 114.9 525.58 127.72C525.58 140.54 516.71 150.05 504.3 150.05C491.89 150.05 482.93 140.54 482.93 127.72ZM504.21 169.81C530.25 169.81 548.39 151.19 548.39 127.72C548.39 104.25 530.25 85.63 504.21 85.63C478.17 85.63 460.11 104.09 460.11 127.72C460.11 151.35 478.09 169.81 504.21 169.81ZM661.43 80.8V87.57H647.72C646.99 87.57 646.59 87.97 646.59 88.7V104.82C646.59 105.55 646.99 105.95 647.72 105.95H661.43V166.74C661.43 167.47 661.83 167.87 662.56 167.87H683.2C683.93 167.87 684.33 167.47 684.33 166.74V105.95H701.99L727.63 161.66L713.84 191.97C713.44 192.86 713.92 193.26 714.73 193.26H736.74C737.47 193.26 737.79 193.1 738.11 192.37L783.66 88.85C783.98 88.12 783.58 87.56 782.77 87.56H762.13C761.4 87.56 761.08 87.72 760.76 88.45L739.96 138.44L719.08 88.45C718.76 87.72 718.44 87.56 717.71 87.56H684.33V82.24C684.33 73.53 690.22 69.5 697.79 69.5C702.3 69.5 707.22 71.84 710.69 73.93C711.5 74.41 712.06 73.85 711.74 73.12L704.48 55.79C704.24 55.23 703.92 54.9 703.35 54.58C699.8 52.73 694 51.11 688.35 51.11C671.26 51.11 661.42 64.17 661.42 80.78L661.43 80.8ZM418.43 169.32C439.07 169.32 453.9 151.5 453.9 127.56C453.9 103.62 438.9 86.12 418.26 86.12C402.94 86.12 394.07 95.47 388.91 104.82V88.7C388.91 87.97 388.51 87.57 387.78 87.57H367.54C366.81 87.57 366.41 87.97 366.41 88.7V192.14C366.41 192.87 366.81 193.27 367.54 193.27H387.78C388.51 193.27 388.91 192.87 388.91 192.14V150.78C394.07 160.13 402.78 169.32 418.42 169.32H418.43ZM590.64 169C597.41 169 603.94 167.23 607.81 164.97C608.37 164.65 608.45 164.33 608.45 163.76V148.44C608.45 147.63 608.05 147.39 607.32 147.8C604.98 149.09 601.92 150.14 597.73 150.14C591.12 150.14 586.93 146.27 586.93 137.72V105.95H607.09C607.82 105.95 608.22 105.55 608.22 104.82V88.7C608.22 87.97 607.82 87.57 607.09 87.57H586.93V66.53C586.93 65.64 586.37 65.16 585.56 65.8L549.52 94.18C549.04 94.58 548.88 94.99 548.88 95.63V104.82C548.88 105.55 549.28 105.95 550.01 105.95H564.04V141.1C564.04 160.13 575 169 590.65 169H590.64ZM613.94 63.71C613.94 70.97 619.58 76.45 627.32 76.45C635.06 76.45 640.86 70.97 640.86 63.71C640.86 56.45 635.22 50.97 627.32 50.97C619.42 50.97 613.94 56.45 613.94 63.71ZM617.08 167.88H637.72C638.45 167.88 638.85 167.48 638.85 166.75V88.71C638.85 87.98 638.45 87.58 637.72 87.58H617.08C616.35 87.58 615.95 87.98 615.95 88.71V166.75C615.95 167.48 616.35 167.88 617.08 167.88ZM388.43 127.41C392.14 114.99 400.68 105.48 412.29 105.48C423.9 105.48 430.99 113.86 430.99 127.57C430.99 141.28 423.33 149.82 412.29 149.82C401.25 149.82 392.13 139.18 388.43 127.41Z" fill="white"/>
<path fill-rule="evenodd" clip-rule="evenodd" d="M810.1 92.31C809.04 90.48 807.57 89.05 805.69 88.01C803.81 86.98 801.71 86.46 799.37 86.46C797.03 86.46 794.93 86.98 793.05 88.01C791.17 89.05 789.7 90.48 788.64 92.31C787.58 94.14 787.05 96.21 787.05 98.52C787.05 100.83 787.58 102.86 788.64 104.69C789.7 106.52 791.17 107.95 793.05 108.99C794.93 110.03 797.03 110.54 799.37 110.54C801.71 110.54 803.81 110.02 805.69 108.99C807.57 107.96 809.04 106.52 810.1 104.69C811.16 102.86 811.69 100.81 811.69 98.52C811.69 96.23 811.16 94.14 810.1 92.31ZM808.17 103.67C807.31 105.19 806.11 106.37 804.58 107.23C803.05 108.08 801.31 108.51 799.38 108.51C797.45 108.51 795.66 108.08 794.13 107.23C792.6 106.38 791.41 105.19 790.56 103.67C789.71 102.16 789.29 100.44 789.29 98.52C789.29 96.6 789.71 94.89 790.56 93.39C791.41 91.89 792.6 90.71 794.13 89.86C795.66 89.01 797.41 88.58 799.38 88.58C801.35 88.58 803.05 89.01 804.58 89.86C806.11 90.71 807.31 91.9 808.17 93.42C809.03 94.94 809.46 96.65 809.46 98.57C809.46 100.49 809.03 102.16 808.17 103.68V103.67Z" fill="white"/>
<path fill-rule="evenodd" clip-rule="evenodd" d="M803.56 98.2901C804.38 97.6901 804.79 96.8901 804.79 95.9001C804.79 94.9101 804.39 94.0701 803.59 93.4701C802.79 92.8701 801.63 92.5701 800.11 92.5701H794.75V103.77H797.34V99.3201H798.75L802.16 103.77H805.34L801.61 99.0501C802.4 98.9001 803.07 98.6501 803.57 98.2801L803.56 98.2901ZM799.7 97.3001H797.34V94.5601H799.79C800.52 94.5601 801.08 94.6701 801.47 94.9001C801.86 95.1301 802.06 95.4801 802.06 95.9601C802.06 96.4101 801.85 96.7501 801.45 96.9701C801.04 97.2001 800.46 97.3101 799.7 97.3101V97.3001Z" fill="white"/>
</svg>
